<?xml version="1.0" standalone="no"?>
<!DOCTYPE svg PUBLIC "-//W3C//DTD SVG 20010904//EN"
 "http://www.w3.org/TR/2001/REC-SVG-20010904/DTD/svg10.dtd">
<svg version="1.0" xmlns="http://www.w3.org/2000/svg"
 width="800.000000pt" height="800.000000pt" viewBox="0 0 800.000000 800.000000"
 preserveAspectRatio="xMidYMid meet">

<g transform="translate(0.000000,800.000000) scale(0.100000,-0.100000)"
fill="#000000" stroke="none">
<path d="M4271 6937 c-20 -10 -23 -16 -18 -52 3 -22 21 -75 41 -117 35 -74 38
-78 69 -77 66 1 68 5 37 95 -43 126 -82 172 -129 151z"/>
<path d="M4118 6792 c-31 -6 -19 -52 35 -137 39 -61 48 -76 87 -142 17 -29 35
-55 40 -58 11 -7 95 57 91 70 -2 6 -8 8 -14 6 -7 -3 -33 -7 -59 -9 -44 -4 -49
-2 -58 23 -15 40 -12 62 11 84 19 18 19 21 6 47 -23 43 -84 111 -104 116 -10
2 -26 2 -35 0z"/>
<path d="M4360 6664 c-79 -26 -120 -53 -120 -78 0 -43 73 -62 105 -26 23 25
57 26 78 2 24 -27 21 -39 -15 -57 -18 -9 -52 -32 -76 -53 l-42 -37 17 -83 c16
-75 36 -104 39 -55 1 11 4 25 8 32 12 19 69 12 131 -18 88 -41 125 -23 111 54
-7 34 -9 35 -50 35 -56 0 -75 22 -86 97 -6 46 -4 64 8 86 9 15 20 27 24 27 20
0 5 31 -25 54 -32 24 -71 31 -107 20z"/>
<path d="M4560 6583 c-76 -6 -84 -15 -76 -87 7 -67 27 -106 56 -106 31 0 49
26 43 64 -5 33 9 57 22 36 4 -6 8 -49 10 -95 4 -101 9 -121 38 -130 21 -7 20
-8 -8 -14 -24 -5 -31 -12 -33 -36 -5 -55 -13 -62 -26 -25 -9 26 -25 42 -62 62
-57 30 -154 46 -154 24 0 -8 7 -16 15 -20 30 -11 13 -24 -74 -56 -70 -25 -102
-31 -148 -29 -106 5 -171 -46 -109 -86 16 -11 35 -14 58 -10 18 3 98 8 178 9
80 2 163 4 186 5 26 1 55 10 79 27 l37 25 -7 -28 c-3 -15 -12 -31 -18 -35 -8
-5 -5 -13 8 -27 10 -12 23 -29 29 -40 6 -10 26 -40 44 -67 42 -63 129 -243
147 -304 13 -43 64 -129 121 -202 30 -38 54 -73 54 -77 0 -5 11 -21 25 -37 14
-16 25 -32 25 -36 0 -5 6 -8 13 -8 19 1 146 127 152 153 4 13 -1 43 -9 68 -22
61 -18 83 5 34 10 -22 19 -57 19 -79 0 -32 7 -46 44 -82 25 -25 57 -47 75 -50
17 -4 33 -10 36 -14 3 -4 -18 -33 -46 -65 l-51 -58 7 -66 c5 -52 2 -83 -16
-146 -12 -44 -24 -91 -27 -105 l-5 -25 24 20 c13 11 26 22 29 25 3 3 28 23 55
45 115 91 164 145 179 199 21 72 24 189 6 212 -34 43 -34 43 -64 21 -34 -24
-18 -44 -141 168 -56 96 -96 155 -106 155 -19 0 -39 -40 -40 -83 l-1 -32 -7
30 c-11 47 2 88 31 104 35 20 50 7 93 -83 35 -72 127 -220 144 -230 5 -3 15 1
22 10 17 20 -6 85 -75 213 -53 97 -139 196 -256 293 -63 52 -186 177 -254 258
-83 99 -75 93 -92 75 -17 -17 -38 -18 -69 -5 -16 7 -14 9 15 9 51 1 82 25 74
59 -13 61 -27 94 -50 121 -13 16 -30 54 -39 86 -8 32 -16 59 -17 60 -8 7 -70
11 -118 8z"/>
<path d="M3010 5959 c0 -4 -10 -9 -22 -13 -13 -3 -51 -24 -85 -46 -49 -32 -72
-56 -102 -107 l-40 -67 45 -41 c24 -23 44 -46 44 -51 1 -5 16 -26 34 -47 l34
-38 30 48 c39 60 51 70 135 111 48 23 70 40 78 59 12 33 9 53 -13 66 -21 14
-86 -19 -169 -85 -66 -54 -89 -60 -89 -25 0 16 29 53 91 116 94 96 107 126 56
126 -15 1 -27 -2 -27 -6z"/>
<path d="M2612 5715 c-29 -7 -65 -23 -80 -37 -15 -13 -45 -36 -67 -50 -38 -24
-51 -43 -91 -132 -23 -51 -12 -67 59 -85 99 -23 167 7 182 82 13 63 15 68 33
58 9 -5 30 -33 46 -63 l28 -53 -26 24 c-14 13 -28 32 -32 43 -8 27 -24 22 -24
-9 0 -21 -13 -40 -52 -75 -46 -40 -50 -48 -35 -54 14 -5 29 4 59 35 22 22 44
41 49 41 5 0 23 -9 41 -20 37 -22 53 -26 42 -9 -3 6 5 4 18 -5 22 -15 27 -15
37 -2 21 25 -10 116 -66 195 -17 24 -17 24 3 13 32 -17 40 -32 64 -112 28 -92
34 -100 74 -97 28 3 31 6 30 33 -1 17 -23 74 -49 128 -42 88 -52 101 -100 132
-59 37 -66 38 -143 19z"/>
<path d="M3880 5717 c-19 -5 -51 -10 -70 -12 -46 -3 -79 -17 -117 -49 -29 -25
-33 -25 -88 -15 -31 6 -60 8 -63 5 -3 -3 2 -6 10 -6 9 0 21 -7 29 -16 12 -14
8 -15 -34 -9 -39 6 -47 5 -47 -9 0 -12 -7 -14 -32 -9 l-33 6 20 -23 20 -23
-58 5 c-37 3 -53 2 -43 -4 9 -5 16 -16 16 -25 0 -11 -6 -14 -25 -9 -20 5 -25
3 -25 -14 0 -11 -7 -20 -15 -20 -9 0 -12 -6 -9 -15 4 -8 1 -15 -6 -15 -6 0 -9
-4 -6 -8 3 -5 -17 -31 -44 -57 -28 -27 -50 -53 -50 -57 0 -16 -66 -115 -102
-153 -70 -74 -94 -162 -69 -259 10 -42 59 -116 102 -156 46 -42 214 -234 258
-293 26 -36 49 -57 61 -57 27 0 26 4 -15 57 -40 53 -65 126 -65 194 l0 46 -47
13 c-135 35 -189 132 -115 205 29 29 83 33 147 10 36 -14 41 -13 50 2 6 10 31
38 57 64 80 78 74 116 -25 182 -73 49 -83 62 -69 92 16 34 91 74 196 106 107
31 140 37 263 45 84 6 94 5 119 -15 33 -26 42 -20 20 13 -9 14 -16 30 -16 36
0 17 36 11 64 -11 30 -24 36 -11 6 16 -11 10 -20 24 -20 32 0 16 22 17 38 1 6
-6 15 -8 19 -4 5 4 -9 23 -29 41 -21 17 -38 36 -38 40 0 4 26 5 57 1 36 -4 54
-3 48 3 -21 20 -92 52 -128 58 -41 6 -44 21 -9 39 41 21 37 25 -18 19 -39 -5
-51 -4 -40 4 22 15 9 19 -30 8z"/>
<path d="M2643 5405 c-22 -16 -53 -68 -53 -90 0 -7 8 -23 19 -36 17 -21 30
-24 142 -32 68 -4 138 -8 154 -9 17 0 61 -5 98 -10 90 -13 119 -6 115 29 -2
18 -11 29 -28 34 -14 3 -45 12 -70 19 -50 14 -79 25 -127 47 -17 8 -36 12 -43
8 -14 -9 -107 15 -145 37 -36 22 -35 22 -62 3z"/>
<path d="M3685 5400 c-107 -23 -225 -64 -260 -92 -45 -36 -35 -54 70 -127 33
-23 43 -37 52 -76 10 -43 9 -49 -11 -64 -48 -37 -106 -103 -106 -120 0 -33 33
-61 90 -76 30 -8 64 -15 75 -15 61 0 92 -20 129 -80 21 -33 39 -60 42 -60 2 0
17 13 32 30 l27 30 45 -24 c83 -42 136 -51 208 -32 76 19 118 49 133 93 8 26
7 37 -5 55 -13 18 -15 38 -10 100 8 97 -3 126 -63 164 -60 37 -75 53 -69 70 8
22 -18 84 -67 160 -37 58 -52 73 -78 78 -54 11 -140 5 -234 -14z"/>
<path d="M2274 5353 c-21 -32 -71 -92 -112 -133 -41 -41 -100 -106 -130 -145
-30 -38 -65 -79 -78 -91 -26 -23 -58 -133 -69 -235 -8 -73 5 -134 34 -171 l20
-23 16 40 c24 56 53 85 87 85 34 0 34 -4 7 -38 l-20 -27 21 -9 c41 -18 143 57
175 129 12 29 39 75 58 104 36 51 67 137 67 184 0 52 38 113 147 235 64 71 68
92 16 92 -32 0 -125 26 -161 44 -17 9 -33 16 -36 16 -2 0 -21 -26 -42 -57z"/>
<path d="M5144 5352 c-21 -13 -34 -52 -28 -77 7 -28 -18 -75 -40 -75 -8 0 -24
16 -35 36 -19 32 -25 36 -50 31 -49 -10 -145 -84 -187 -143 -58 -82 -75 -226
-40 -324 19 -52 40 -73 95 -97 46 -20 51 -36 20 -69 -14 -14 -24 -44 -29 -86
-5 -34 -12 -79 -15 -99 -6 -31 -3 -39 24 -66 40 -40 81 -118 81 -154 0 -38 10
-36 40 8 21 30 26 53 31 129 5 81 10 98 38 140 17 27 48 82 68 123 31 62 38
89 43 161 5 72 11 95 38 142 43 74 56 146 40 216 -12 54 -12 54 20 83 39 37
40 48 5 81 -48 44 -91 59 -119 40z"/>
<path d="M2492 5222 c-92 -107 -109 -139 -123 -234 -11 -78 -16 -92 -52 -135
-22 -26 -51 -72 -65 -102 -27 -60 -26 -63 40 -81 20 -6 40 -15 43 -20 10 -16
52 -11 59 6 3 9 6 54 6 100 0 116 19 221 47 266 13 21 23 42 23 48 0 5 4 10 9
10 5 0 13 10 17 23 4 12 9 24 13 27 16 13 51 92 51 114 0 43 -16 38 -68 -22z"/>
<path d="M5414 4982 c-130 -115 -244 -247 -244 -285 0 -7 -4 -17 -8 -23 -5 -5
-17 -36 -27 -69 -11 -33 -23 -64 -27 -69 -4 -6 -8 -16 -8 -24 0 -8 -13 -34
-30 -58 -43 -64 -47 -90 -19 -120 12 -13 26 -24 31 -24 18 0 103 -42 114 -56
9 -11 9 -24 1 -49 -7 -25 -7 -42 1 -60 16 -35 50 -33 59 3 10 43 34 74 98 132
126 113 207 237 240 363 18 68 19 128 5 215 -12 74 -58 222 -68 221 -4 0 -57
-44 -118 -97z"/>
<path d="M1893 4955 c-46 -56 -111 -192 -138 -288 -9 -32 -29 -80 -45 -106
-36 -58 -38 -90 -7 -119 42 -40 53 -25 32 45 -2 6 2 19 10 30 11 14 28 18 89
19 42 1 79 4 83 8 3 3 1 6 -4 6 -6 0 -21 19 -32 43 -36 74 -24 219 27 345 12
28 20 52 18 52 -3 0 -17 -16 -33 -35z"/>
<path d="M3233 4920 c-25 -10 -38 -48 -28 -79 9 -28 51 -55 110 -71 28 -7 73
-19 101 -28 29 -8 63 -12 78 -8 l26 6 -22 41 c-23 40 -102 115 -145 138 -25
13 -88 14 -120 1z"/>
<path d="M3593 4784 c-17 -9 -39 -25 -49 -35 -17 -19 -17 -20 5 -35 33 -24 59
-53 104 -119 22 -33 73 -101 112 -150 40 -50 80 -105 89 -122 8 -17 29 -41 44
-52 16 -11 40 -36 53 -55 13 -20 26 -36 30 -36 3 0 10 23 16 52 8 38 7 65 -2
105 -14 60 -5 69 19 19 20 -43 20 -71 0 -134 -16 -49 -44 -76 -53 -51 -2 7
-41 52 -87 101 -46 48 -110 127 -143 176 -33 49 -74 101 -91 115 -49 42 -226
157 -240 157 -10 0 -11 -14 -6 -57 9 -76 36 -133 100 -212 70 -86 83 -113 89
-191 l6 -65 -12 62 c-8 36 -25 76 -41 97 l-27 36 -47 -27 c-26 -14 -53 -31
-60 -36 -7 -6 -23 -11 -36 -12 -12 0 -41 -16 -65 -34 l-42 -34 -35 19 c-18 10
-34 22 -34 26 0 5 -6 8 -14 8 -8 0 -21 6 -28 13 -17 16 -80 42 -140 57 -45 12
-185 9 -206 -4 -15 -9 0 -64 35 -127 61 -111 83 -182 83 -264 0 -73 2 -80 35
-125 20 -27 40 -50 44 -52 10 -3 121 -134 162 -191 16 -21 35 -63 44 -93 23
-79 44 -95 117 -87 50 5 62 3 81 -14 39 -36 91 -63 123 -63 17 0 53 12 80 26
55 30 162 76 243 105 30 11 64 25 76 33 18 12 23 11 40 -3 11 -9 21 -27 22
-41 11 -132 14 -140 52 -156 22 -10 80 -18 151 -21 l115 -5 59 61 c33 34 56
61 50 61 -94 5 -152 22 -202 60 l-34 25 29 5 c38 8 100 -9 143 -38 49 -33 85
-25 172 39 56 41 82 53 118 56 39 4 120 -11 173 -32 22 -9 22 2 -2 51 -40 83
-44 120 -26 233 13 76 16 129 11 194 -7 97 4 150 50 230 13 23 24 47 24 53 0
7 -18 29 -39 51 -58 58 -62 94 -20 201 25 63 0 117 -70 155 -47 25 -56 27 -93
16 -78 -20 -188 -136 -188 -197 0 -20 -49 -72 -68 -72 -6 0 -9 7 -6 15 5 12
-5 15 -58 15 -80 0 -116 17 -164 76 -36 44 -37 46 -25 87 7 23 14 49 17 58 4
14 -1 14 -38 -4 -67 -34 -147 -30 -227 11 -36 17 -66 32 -67 32 -1 0 -10 -22
-20 -50 -10 -27 -21 -50 -25 -50 -4 0 -19 19 -32 43 -29 47 -100 127 -113 127
-5 0 -23 -8 -41 -16z m217 -609 c28 -30 23 -39 -14 -26 -16 7 -26 18 -26 31 0
27 12 25 40 -5z m168 -137 c-5 -15 -23 -11 -26 6 -2 11 2 14 13 10 9 -4 14
-11 13 -16z m50 -104 c38 -44 30 -51 -67 -58 -97 -7 -121 -3 -121 24 0 23 27
46 70 59 49 14 91 5 118 -25z m168 1 c5 -12 -30 -85 -41 -85 -1 0 -22 8 -45
19 -44 20 -37 31 21 31 22 0 30 6 35 25 7 28 22 33 30 10z m-449 -48 c-21 -45
-37 -60 -37 -35 0 13 51 90 56 85 1 -1 -7 -24 -19 -50z m301 -133 c34 -10 21
-28 -29 -40 -35 -9 -48 -8 -66 3 -14 9 -41 13 -74 11 -34 -2 -53 1 -56 9 -3 9
18 13 74 16 43 1 89 4 103 5 14 1 35 -1 48 -4z m-34 -126 c-4 -7 -14 -21 -22
-31 -15 -16 -17 -16 -39 5 l-25 23 24 6 c41 12 70 10 62 -3z m52 -94 c13 -9
39 -20 56 -23 l32 -7 -36 -21 c-31 -18 -39 -19 -48 -8 -6 8 -25 17 -41 20 -33
7 -33 8 -17 35 15 24 22 25 54 4z"/>
<path d="M2154 4627 c-46 -32 -108 -67 -117 -67 -3 0 -10 14 -17 30 -7 17 -16
30 -20 30 -16 0 -40 -38 -40 -64 0 -35 -37 -49 -106 -40 -54 6 -75 -4 -50 -26
8 -6 45 -16 83 -21 37 -5 85 -14 106 -20 46 -12 57 -6 57 30 0 16 9 36 23 48
41 37 52 37 20 0 -46 -53 -41 -62 102 -197 129 -121 166 -153 172 -146 3 3
-15 29 -39 58 -62 73 -95 135 -102 188 l-5 45 17 -51 c26 -76 77 -150 135
-193 85 -62 148 -74 269 -49 51 11 65 10 114 -7 84 -28 90 -5 34 120 -15 33
-33 83 -39 111 -17 69 -69 153 -116 185 -55 37 -136 45 -240 24 -108 -23 -141
-38 -165 -77 l-20 -33 0 41 c0 22 -5 45 -11 51 -16 16 30 27 75 19 41 -8 57 9
30 29 -35 26 -97 18 -150 -18z"/>
<path d="M1760 4479 c0 -48 81 -247 103 -253 38 -11 204 -36 272 -41 44 -3
102 -8 128 -11 47 -6 48 -5 38 15 -6 11 -37 38 -69 60 -31 21 -82 64 -112 94
-63 65 -79 73 -182 86 -48 7 -94 20 -122 36 -50 28 -56 30 -56 14z"/>
<path d="M5017 4263 c-37 -54 -44 -128 -18 -170 13 -20 29 -33 41 -33 11 0 32
-7 45 -16 33 -22 68 -15 76 16 12 44 9 120 -5 149 -18 33 -81 91 -100 91 -7 0
-25 -17 -39 -37z"/>
<path d="M4887 4244 c-3 -5 -20 -45 -38 -89 -28 -70 -32 -92 -32 -170 0 -49 5
-113 12 -142 10 -39 10 -61 2 -86 -10 -28 -8 -43 12 -98 19 -49 23 -77 20
-119 -3 -30 -7 -57 -9 -59 -2 -2 -36 7 -76 20 -40 13 -91 24 -113 23 -97 0
-126 -33 -55 -62 29 -12 40 -23 40 -39 0 -31 53 -71 105 -79 41 -6 64 -24 31
-24 -7 0 -20 -7 -27 -16 -11 -14 -10 -18 6 -30 11 -8 37 -17 58 -21 58 -9 63
-34 37 -163 -12 -58 -26 -109 -31 -115 -5 -5 -10 -29 -10 -55 -1 -25 -4 -36
-6 -25 -8 31 -23 45 -49 45 -32 0 -30 16 4 35 55 30 63 42 72 106 5 35 6 82 3
106 -5 39 -8 43 -35 43 -30 0 -88 25 -88 38 0 4 7 18 16 30 14 20 14 23 -3 28
-78 25 -110 55 -99 92 6 16 0 20 -33 26 -57 9 -171 -45 -229 -108 -42 -45 -43
-48 -28 -69 9 -12 24 -33 33 -46 10 -14 16 -39 14 -64 -2 -32 4 -46 26 -69 25
-27 26 -30 14 -61 -23 -56 -24 -85 -2 -156 24 -81 26 -124 6 -206 -8 -33 -15
-73 -15 -88 0 -16 -11 -43 -24 -60 -12 -18 -33 -53 -45 -78 l-22 -47 -88 -7
c-81 -6 -96 -4 -167 20 -44 15 -83 31 -89 36 -5 5 -28 9 -52 9 -37 0 -44 -4
-58 -30 -22 -43 -42 -39 -38 8 13 136 35 202 69 202 6 0 26 17 44 37 31 34 31
37 14 50 -10 7 -44 13 -77 13 -61 0 -68 -3 -247 -115 -30 -19 -63 -35 -74 -35
-15 0 -17 -5 -11 -27 3 -16 16 -44 29 -63 12 -19 31 -47 40 -62 28 -44 4 -33
-32 14 -27 36 -32 38 -32 19 0 -19 -5 -22 -32 -19 -17 2 -33 9 -36 17 -3 9 2
11 17 6 19 -6 21 -3 21 32 0 21 -7 69 -15 108 -20 95 -19 114 11 171 31 59 27
105 -16 175 -27 45 -28 53 -32 189 -3 130 -1 143 16 155 16 12 17 17 6 30 -7
8 -16 15 -21 15 -5 0 -29 14 -54 32 -60 42 -80 32 -80 -38 0 -27 -6 -65 -14
-85 -14 -35 -14 -36 -42 -22 -34 17 -38 33 -9 33 23 0 26 10 8 28 -9 9 -7 17
10 35 28 30 20 54 -21 63 -41 8 -153 125 -206 214 -22 36 -59 85 -83 110 -48
49 -95 122 -74 114 7 -3 23 -18 35 -34 42 -57 42 -30 0 30 -39 57 -43 66 -50
152 -9 112 -23 133 -110 171 -68 29 -124 32 -183 8 -28 -11 -28 -11 -11 -38
l18 -27 -29 23 c-56 44 -88 51 -243 51 -80 0 -186 5 -236 12 -90 12 -222 14
-233 4 -7 -8 85 -143 109 -159 11 -8 37 -31 59 -51 21 -20 51 -41 65 -48 14
-6 25 -15 25 -20 0 -4 7 -8 15 -8 8 0 15 -5 15 -10 0 -6 3 -9 8 -8 4 1 27 -7
52 -19 141 -65 370 -108 370 -69 0 23 59 66 91 66 34 0 36 6 12 33 -17 19 -17
20 4 8 12 -6 51 -11 86 -11 49 0 68 -4 78 -17 12 -15 12 -16 -1 -8 -30 18
-170 -7 -195 -36 -24 -25 -12 -66 51 -180 61 -111 109 -177 180 -251 52 -54
59 -65 61 -107 2 -25 19 -212 38 -415 19 -203 35 -382 35 -398 0 -26 -3 -28
-38 -28 -22 0 -60 -6 -85 -14 -26 -8 -49 -11 -52 -6 -3 4 -26 18 -52 31 -38
18 -65 23 -134 23 -78 1 -90 -2 -134 -29 -105 -65 -136 -140 -160 -399 -19
-191 -19 -234 1 -309 19 -73 52 -119 113 -155 40 -24 57 -27 131 -27 72 0 93
4 138 26 l53 26 66 -20 c59 -18 73 -19 131 -8 36 7 147 14 246 17 100 3 195 8
211 13 17 4 57 3 91 -2 48 -8 74 -7 123 5 42 11 72 13 92 8 47 -14 305 -10
353 4 31 10 49 10 62 3 26 -15 321 -28 364 -17 25 7 51 5 90 -5 71 -19 124
-19 188 0 41 13 57 13 74 4 32 -17 118 -39 153 -39 17 0 55 6 84 14 49 13 57
12 99 -6 93 -42 218 -33 295 19 103 71 129 237 67 424 -15 44 -17 64 -9 92 10
37 2 110 -21 198 -17 65 -99 142 -170 159 -69 17 -160 8 -219 -22 -65 -32 -83
-27 -76 20 12 79 95 882 95 914 0 18 6 44 13 58 36 70 58 202 51 300 -3 41 -7
104 -9 140 -7 101 -14 137 -34 171 l-19 31 -17 -35 c-9 -19 -25 -43 -36 -53
-19 -17 -21 -16 -50 12 l-31 29 -29 -35 c-16 -19 -29 -40 -29 -46 0 -22 -20
-67 -27 -60 -4 4 -19 64 -34 134 -34 158 -54 228 -62 216z m-2223 -244 c3 -17
9 -44 12 -61 4 -20 2 -29 -4 -25 -6 3 -13 25 -17 49 -3 23 -9 50 -12 61 -3 11
-1 16 5 12 6 -3 13 -20 16 -36z m2151 -1258 c-5 -49 -11 -72 -18 -69 -7 2 -11
13 -9 23 1 10 5 44 8 74 3 30 8 66 12 80 6 25 6 24 10 -5 2 -16 1 -63 -3 -103z
m-2037 -457 c32 -34 32 -36 32 -135 l0 -101 -62 3 -63 3 4 84 c2 66 0 82 -11
79 -13 -4 -25 -94 -43 -320 -5 -73 -4 -88 8 -88 16 0 27 41 27 106 0 23 4 45
8 48 5 3 34 2 66 -1 l58 -6 -7 -61 c-14 -128 -73 -196 -171 -196 -77 0 -106
27 -112 107 -5 78 26 408 42 447 38 91 153 106 224 31z m2617 29 c26 -17 40
-52 50 -125 l7 -46 -53 -7 c-59 -8 -69 -1 -69 52 0 22 -5 32 -15 32 -10 0 -15
-10 -15 -34 0 -30 8 -42 61 -88 80 -70 106 -116 119 -211 13 -89 2 -148 -33
-172 -32 -23 -121 -20 -167 6 -50 28 -71 69 -78 145 l-5 64 55 0 55 0 7 -60
c6 -51 10 -60 26 -60 17 0 20 7 20 43 0 39 -5 46 -75 114 -41 39 -82 87 -90
107 -17 41 -20 168 -4 197 28 54 149 79 204 43z m-297 -40 c27 -18 37 -42 44
-106 l6 -48 -34 -2 c-82 -4 -79 -6 -84 35 -6 46 -24 53 -28 11 -3 -26 6 -38
69 -94 39 -35 78 -78 85 -96 21 -50 29 -158 14 -194 -24 -58 -107 -77 -190
-44 -55 22 -81 62 -87 134 l-6 60 56 0 55 0 9 -52 c6 -38 13 -54 26 -56 13 -3
17 4 17 31 0 53 -6 62 -76 118 -36 28 -71 64 -79 79 -33 64 -28 179 10 210 48
40 143 46 193 14z m-2022 -3 c17 -10 39 -36 49 -57 16 -35 17 -50 6 -207 -9
-131 -16 -177 -31 -207 -40 -79 -169 -105 -228 -47 -33 33 -38 91 -23 273 14
172 23 206 62 238 39 33 117 36 165 7z m318 -22 c3 -5 46 -446 46 -476 0 -22
-4 -23 -65 -23 l-65 0 0 45 c0 37 -3 45 -19 45 -22 0 -31 -19 -31 -66 l0 -34
-65 0 c-53 0 -65 3 -65 16 0 14 56 336 81 459 l9 50 86 -6 c47 -4 86 -8 88
-10z m1455 -203 c12 -210 12 -226 -5 -254 -22 -38 -52 -52 -112 -52 -55 0
-108 24 -135 62 -18 24 -22 53 -30 233 -6 113 -8 207 -6 209 2 2 29 7 60 10
l57 7 7 -128 c12 -232 19 -296 34 -301 12 -4 13 24 7 179 -4 101 -9 198 -12
216 -6 34 1 38 87 42 l35 1 13 -224z m-1159 186 c46 -23 70 -72 70 -144 l0
-58 -65 0 -65 0 3 63 c2 49 -1 62 -13 62 -12 0 -16 -26 -21 -150 -4 -82 -3
-154 1 -159 17 -18 30 8 30 60 l0 54 66 0 66 0 -7 -62 c-11 -107 -64 -152
-168 -145 -47 3 -63 9 -85 31 l-27 27 1 168 c2 188 8 211 63 248 41 28 102 30
151 5z m824 -54 c3 -40 8 -153 12 -250 l6 -178 -28 0 c-16 0 -46 3 -66 6 l-38
7 0 99 c0 89 -2 99 -17 96 -16 -3 -18 -14 -15 -101 l4 -97 -66 0 -66 0 -2 185
c-1 102 -2 209 -3 238 l0 52 63 3 62 3 0 -91 c0 -79 2 -90 18 -90 15 0 17 10
14 89 l-3 90 33 4 c91 11 85 15 92 -65z m-613 52 l29 0 0 -90 c0 -73 3 -90 15
-90 12 0 15 17 15 90 l0 90 65 0 65 0 0 -235 0 -235 -65 0 -65 0 0 100 c0 82
-3 100 -15 100 -12 0 -15 -18 -15 -100 l0 -100 -65 0 -65 0 0 188 c0 103 3
211 7 240 6 53 6 54 36 48 16 -3 42 -6 58 -6z"/>
<path d="M2986 2168 c-3 -13 -8 -66 -11 -118 -3 -52 -8 -125 -12 -162 -5 -58
-3 -68 10 -68 19 0 24 25 32 155 3 50 8 118 11 153 5 53 4 62 -10 62 -8 0 -18
-10 -20 -22z"/>
<path d="M3296 2048 c-4 -29 -9 -68 -12 -85 -5 -26 -3 -33 10 -33 13 0 16 14
16 85 0 47 -2 85 -4 85 -2 0 -6 -24 -10 -52z"/>
<path d="M3850 3448 c-69 -22 -195 -97 -182 -110 10 -10 89 -11 205 -2 l97 7
0 51 c0 53 -12 76 -39 75 -9 0 -45 -9 -81 -21z"/>
<path d="M3730 3308 c-25 -5 -74 -7 -110 -4 -50 4 -71 2 -88 -10 -21 -14 -22
-22 -22 -147 l0 -131 33 30 c63 59 118 67 262 37 98 -20 128 -12 150 41 18 43
30 136 21 170 -6 26 -7 26 -104 25 -53 -1 -117 -5 -142 -11z"/>
<path d="M4015 3279 c-4 -5 -9 -43 -12 -83 -5 -65 -3 -79 16 -110 14 -22 31
-36 44 -37 128 -5 158 -10 214 -33 69 -29 93 -32 111 -14 16 16 15 59 -3 82
-8 11 -15 41 -15 67 0 36 -6 55 -25 77 -24 29 -26 29 -147 35 -68 3 -135 10
-150 16 -18 7 -29 7 -33 0z"/>
<path d="M3591 3052 c-45 -43 -48 -58 -30 -143 9 -39 8 -62 -1 -92 -10 -35 -9
-42 8 -61 30 -33 42 -61 42 -100 0 -20 5 -36 11 -36 6 0 36 27 68 60 75 78
111 93 183 78 30 -6 62 -9 72 -5 45 17 70 155 45 253 -13 49 -20 54 -41 23
l-14 -21 -44 20 c-49 23 -138 47 -211 57 -44 7 -48 5 -88 -33z"/>
<path d="M4034 3015 c-10 -24 14 -201 30 -234 11 -20 31 -32 83 -50 37 -12 85
-34 106 -48 23 -16 57 -28 87 -31 49 -4 49 -4 65 34 19 43 15 142 -7 211 -11
33 -22 42 -87 74 -44 23 -96 40 -130 43 -31 4 -75 9 -98 13 -35 4 -44 2 -49
-12z"/>
<path d="M4029 2712 c-29 -26 -31 -33 -36 -115 -4 -55 -11 -91 -19 -98 -8 -6
-14 -16 -14 -21 0 -15 121 -64 190 -77 73 -14 98 -8 148 34 37 31 106 149 99
169 -3 7 -26 17 -51 20 -25 4 -76 23 -113 43 -54 29 -157 73 -170 73 -2 0 -17
-13 -34 -28z"/>
<path d="M3890 2592 c-23 -18 -23 -22 -12 -61 7 -22 17 -41 22 -41 15 0 51 59
53 87 3 35 -29 43 -63 15z"/>
<path d="M3165 1548 c-6 -20 -45 -206 -45 -218 0 -5 9 -10 20 -10 13 0 20 7
20 20 0 15 7 20 24 20 16 0 27 -7 31 -20 3 -11 14 -20 24 -20 17 0 18 4 6 63
-7 34 -18 88 -25 120 -9 46 -15 57 -31 57 -11 0 -22 -6 -24 -12z m35 -118 c7
-36 5 -40 -13 -40 -17 0 -19 5 -13 31 3 17 6 38 6 47 0 27 12 4 20 -38z"/>
<path d="M3370 1440 l0 -121 58 3 57 3 0 115 0 115 -57 3 -58 3 0 -121z m85 0
l0 -85 -27 -3 -28 -3 0 91 0 91 28 -3 27 -3 0 -85z"/>
<path d="M3613 1533 c3 -16 13 -70 23 -120 16 -82 20 -93 39 -93 19 0 23 11
39 93 10 50 20 104 23 120 5 23 2 27 -16 27 -14 0 -21 -6 -21 -20 0 -10 -5
-42 -11 -71 -13 -62 -24 -51 -34 33 -6 49 -10 58 -27 58 -17 0 -20 -5 -15 -27z"/>
<path d="M3890 1556 c0 -8 -40 -197 -46 -218 -4 -13 0 -18 14 -18 11 0 22 9
25 20 3 14 14 20 31 20 19 0 26 -5 26 -20 0 -13 7 -20 20 -20 24 0 24 -10 -3
125 -20 98 -25 110 -45 113 -12 2 -22 1 -22 -2z m33 -123 c7 -41 4 -48 -16
-40 -9 3 -12 17 -9 41 5 47 18 46 25 -1z"/>
<path d="M4090 1440 c0 -113 1 -120 20 -120 18 0 20 7 20 62 0 70 9 68 35 -9
12 -40 21 -53 36 -53 18 0 19 8 19 120 0 113 -1 120 -20 120 -18 0 -20 -7 -20
-62 l-1 -63 -26 63 c-18 45 -30 62 -44 62 -18 0 -19 -9 -19 -120z"/>
<path d="M4340 1440 l0 -121 63 3 62 3 3 38 c3 32 0 37 -17 37 -16 0 -21 -6
-21 -25 0 -20 -5 -25 -25 -25 -25 0 -25 1 -25 90 0 89 0 90 25 90 20 0 25 -5
25 -25 0 -19 5 -25 21 -25 17 0 20 5 17 38 l-3 37 -62 3 -63 3 0 -121z"/>
<path d="M4590 1440 l0 -120 50 0 c38 0 50 4 50 15 0 11 -11 15 -36 15 -35 0
-35 1 -32 38 3 32 7 37 31 40 38 5 36 32 -3 32 -28 0 -30 3 -30 35 0 33 2 35
35 35 24 0 35 5 35 15 0 11 -12 15 -50 15 l-50 0 0 -120z"/>
<path d="M4810 1440 l0 -121 58 3 57 3 0 115 0 115 -57 3 -58 3 0 -121z m85 0
l0 -85 -27 -3 -28 -3 0 91 0 91 28 -3 27 -3 0 -85z"/>
<path d="M2660 1265 c0 -9 9 -15 25 -15 l25 0 0 -100 0 -100 25 0 25 0 0 100
0 100 25 0 c16 0 25 6 25 15 0 12 -15 15 -75 15 -60 0 -75 -3 -75 -15z"/>
<path d="M2850 1165 l0 -115 25 0 25 0 0 100 0 100 30 0 c28 0 30 -3 30 -35 0
-31 -3 -35 -25 -35 -31 0 -31 -6 -1 -75 21 -46 29 -55 50 -55 15 0 26 2 26 5
0 3 -11 28 -25 55 -25 48 -25 50 -5 50 18 0 20 6 20 60 l0 60 -75 0 -75 0 0
-115z"/>
<path d="M3076 1183 c-15 -54 -29 -106 -32 -115 -4 -14 0 -18 19 -18 18 0 27
7 31 25 5 19 13 25 35 25 22 0 30 -6 35 -25 5 -18 13 -25 30 -25 l24 0 -29
108 c-16 59 -29 110 -29 115 0 4 -13 7 -29 7 -27 0 -29 -3 -55 -97z m64 5 c0
-7 3 -23 6 -35 5 -19 2 -23 -15 -23 -22 0 -25 10 -15 48 7 23 24 31 24 10z"/>
<path d="M3260 1166 c0 -109 1 -116 20 -116 18 0 20 7 20 60 0 33 3 60 8 60 4
0 21 -26 38 -58 21 -38 38 -58 52 -60 22 -3 22 -1 22 112 l0 116 -25 0 c-22 0
-24 -4 -27 -57 l-3 -58 -30 55 c-21 38 -37 56 -52 58 -23 3 -23 2 -23 -112z"/>
<path d="M3470 1238 c0 -40 3 -45 50 -76 38 -25 50 -38 50 -58 0 -22 -4 -25
-27 -22 -20 2 -29 9 -31 26 -2 14 -10 22 -23 22 -17 0 -20 -6 -17 -37 3 -38 3
-38 52 -41 82 -5 96 2 96 48 0 36 -4 43 -55 80 -62 46 -71 70 -25 70 23 0 30
-4 30 -20 0 -15 7 -20 25 -20 22 0 25 4 25 35 l0 35 -75 0 -75 0 0 -42z"/>
<path d="M3670 1165 l0 -115 25 0 c24 0 25 3 25 55 l0 55 35 0 c24 0 35 5 35
15 0 10 -11 15 -35 15 -32 0 -35 2 -35 30 0 28 2 30 40 30 29 0 40 4 40 15 0
12 -14 15 -65 15 l-65 0 0 -115z"/>
<path d="M3840 1170 c0 -126 -2 -124 101 -118 l54 3 3 113 3 112 -81 0 -80 0
0 -110z m110 -5 l0 -85 -30 0 -30 0 0 85 0 85 30 0 30 0 0 -85z"/>
<path d="M4050 1165 l0 -115 25 0 25 0 0 100 0 100 30 0 c28 0 30 -3 30 -35 0
-31 -3 -35 -26 -35 -14 0 -24 -4 -22 -8 41 -103 54 -122 81 -122 l27 0 -25 50
c-30 59 -30 56 -5 63 17 4 20 14 20 61 l0 56 -80 0 -80 0 0 -115z"/>
<path d="M4260 1165 c0 -96 3 -115 15 -115 12 0 15 13 15 60 0 74 20 82 38 15
17 -64 56 -60 54 6 0 22 4 29 19 29 16 0 19 -7 19 -55 0 -42 3 -55 15 -55 12
0 15 19 15 115 0 114 0 115 -24 115 -19 0 -27 -9 -43 -51 -10 -28 -23 -51 -27
-52 -5 -1 -18 22 -29 51 -16 42 -24 52 -43 52 -24 0 -24 -1 -24 -115z"/>
<path d="M4526 1183 c-15 -54 -29 -106 -32 -115 -4 -14 0 -18 19 -18 18 0 27
7 31 25 5 19 13 25 35 25 22 0 30 -6 35 -25 5 -18 13 -25 30 -25 l24 0 -29
108 c-16 59 -29 110 -29 115 0 4 -13 7 -29 7 -27 0 -29 -3 -55 -97z m69 -20
c6 -29 4 -33 -14 -33 -23 0 -24 3 -15 49 8 37 19 30 29 -16z"/>
<path d="M4690 1265 c0 -9 9 -15 25 -15 l25 0 0 -100 0 -100 25 0 25 0 0 100
0 100 25 0 c16 0 25 6 25 15 0 12 -15 15 -75 15 -60 0 -75 -3 -75 -15z"/>
<path d="M4880 1165 l0 -115 25 0 25 0 0 115 0 115 -25 0 -25 0 0 -115z"/>
<path d="M4980 1170 c0 -126 -2 -124 101 -118 l54 3 3 113 3 112 -81 0 -80 0
0 -110z m110 -5 l0 -85 -30 0 -30 0 0 85 0 85 30 0 30 0 0 -85z"/>
<path d="M5190 1166 l0 -116 25 0 c23 0 24 3 27 68 l3 67 35 -67 c27 -54 39
-68 57 -68 23 0 23 2 23 115 l0 115 -25 0 c-23 0 -24 -4 -27 -62 l-3 -63 -31
60 c-25 47 -37 61 -58 63 l-26 3 0 -115z"/>
</g>
</svg>
